<?xml version="1.0" encoding="utf-8"?>
<!DOCTYPE svg PUBLIC "-//W3C//DTD SVG 1.1//EN" "http://www.w3.org/Graphics/SVG/1.1/DTD/svg11.dtd">
<svg style="width:300px; height:300px;" version="1.1" xmlns="http://www.w3.org/2000/svg" x="100px" y="100px" width="50px" height="50px" viewBox="321.9 320 383.6 383.6" enable-background="" >
  <path class="svgpath" data-index="path_0" fill="#56abe4" d="M551.991318 441.098183c-5.755074 5.51255-12.609179 7.970532-20.825304 7.970532-7.944949 0-15.075347-2.457981-20.832468-7.970532-5.755074-5.192256-8.500605-11.778254-8.500605-19.163455 0-7.682983 2.745531-14.236236 8.500605-19.458167 5.756097-5.481851 12.887518-8.216125 20.832468-8.216125 8.216125 0 15.07023 2.734274 20.825304 8.216125 5.748934 5.221932 8.494465 11.775184 8.494465 19.458167C560.485783 429.319929 557.740252 435.905928 551.991318 441.098183zM554.181193 617.884562c-9.863648 3.827165-17.807574 6.847965-23.840988 8.751315-5.756097 2.192945-12.609179 3.288906-20.276812 3.288906-12.051477 0-21.379936-2.996241-27.947516-8.778944-6.582929-6.018064-9.864672-13.431917-9.864672-22.182208 0-3.558036 0.270153-7.14677 0.549515-10.680247 0.535189-3.850701 1.363044-7.974625 2.461051-12.362562l12.322653-43.836391 2.745531-11.772115c0.827855-3.857864 1.099031-7.123234 1.099031-10.412141 0-5.483898-1.099031-9.340739-3.296069-11.508102-2.459005-2.191922-6.854105-3.292999-13.150508-3.292999-3.279696 0-6.567579 0.537236-9.862625 1.369184l-8.765641 3.021823 3.28072-13.434987c8.230452-3.294023 15.898085-6.315846 23.293519-8.507768 7.401574-2.466168 14.534018-3.535523 21.103644-3.535523 11.788487 0 20.829398 2.732228 27.405163 8.484232 6.296403 5.756097 9.592472 13.141298 9.592472 22.454408l-0.548492 9.871835c-0.550539 4.955872-1.364067 9.340739-2.461051 13.437034l-12.338003 43.299155c-1.098008 3.558036-1.912559 7.680936-2.745531 12.06478-0.813528 4.366448-1.363044 7.92653-1.363044 10.118452 0 5.780657 1.363044 9.877975 4.108574 11.775184 2.460028 2.196015 6.845918 3.318582 13.434987 3.318582 3.01159 0 6.29845-0.561795 10.127661-1.656733 3.837398-1.098008 6.582929-1.930979 8.231475-2.732228L554.181193 617.884562zM514.170944 320.535317c-106.054431 0-191.827957 85.768409-191.827957 191.82898 0 106.054431 85.773526 191.823863 191.827957 191.823863 106.057501 0 191.82898-85.769432 191.82898-191.823863C705.999924 406.303726 620.228445 320.535317 514.170944 320.535317z" />

</svg>
